***************************************************************

[IMG]http://www.hotimg.org/images/67363952943939111394.png[/IMG]

***************************************************************

[img]http://www.imagezon3.com/images/d6CG9.jpg[/img]

***************************************************************

FILM TITLE: The Rum Diary (2011)

***************************************************************

Genre:  Comedy | Drama | Romance   

Rated R for language, brief drug use and sexuality

Release:  30 December 2011 (Poland)

Director: Bruce Robinson

Writer: Bruce Robinson (screenplay), Hunter S. Thompson (novel)

Stars:  Johnny Depp, Giovanni Ribisi and Aaron Eckhart

Country:  USA

Language:  English | Spanish | German

Plot:
American journalist Paul Kemp takes on a freelance job in 
Puerto Rico for a local newspaper during the 1950s and struggles 
to find a balance between island culture and the expatriates 
who live there.

IMDB Rating: 6.4/10 from 17,369 users   Metascore: 56/100
 
http://www.imdb.com/title/tt0376136/

****************************************************************

[URL=http://www.hotimg.org/viewer.php?file=45836504116580982255.png][IMG]http://www.hotimg.org/images/45836504116580982255_thumb.png[/IMG][/URL]
[URL=http://www.hotimg.org/viewer.php?file=39020619634507685915.png][IMG]http://www.hotimg.org/images/39020619634507685915_thumb.png[/IMG][/URL]
[URL=http://www.hotimg.org/viewer.php?file=55129679458969818413.png][IMG]http://www.hotimg.org/images/55129679458969818413_thumb.png[/IMG][/URL]
[URL=http://www.hotimg.org/viewer.php?file=22347626475144271682.png][IMG]http://www.hotimg.org/images/22347626475144271682_thumb.png[/IMG][/URL]

****************************************************************

General
Unique ID                        : 177174326907956697127712250131031515671 (0x854A88BE8129FE94B20EA0EC5397E217)
Complete name                    : U:\The Rum Diary 2011 720p BDRip x264 ac3 subs (mkv) [GREYSHADOW]\The Rum Diary 2011 720p BDRip x264 ac3 subs (mkv) [GREYSHADOW].mkv
Format                           : Matroska
Format version                   : Version 2
File size                        : 3.80 GiB
Duration                         : 1h 59mn
Overall bit rate                 : 4539 Kbps
Encoded date                     : UTC 2012-02-24 21:13:40
Writing application              : mkvmerge v5.3.0 ('I could have danced') built on Feb  9 2012 10:38:07
Writing library                  : libebml v1.2.3 + libmatroska v1.3.0

Video
ID                               : 1
Format                           : AVC
Format/Info                      : Advanced Video Codec
Format profile                   : High@L4.1
Format settings, CABAC           : Yes
Format settings, ReFrames        : 9 frames
Muxing mode                      : Header stripping
Codec ID                         : V_MPEG4/ISO/AVC
Duration                         : 1h 59mn
Bit rate                         : 3900 Kbps
Width                            : 1280 pixels
Height                           : 688 pixels
Display aspect ratio             : 1.860
Frame rate                       : 23.976 fps
Color space                      : YUV
Chroma subsampling               : 4:2:0
Bit depth                        : 8 bits
Scan type                        : Progressive
Bits/(Pixel*Frame)               : 0.185
Stream size                      : 3.19 GiB (84%)
Title                            : AVC MPEG4 Video
Writing library                  : x264 core 120 r2164 da19765
Language                         : English
Color primaries                  : BT.709-5, BT.1361, IEC 61966-2-4, SMPTE RP177
Transfer characteristics         : BT.709-5, BT.1361
Matrix coefficients              : BT.709-5, BT.1361, IEC 61966-2-4 709, SMPTE RP177

Audio
ID                               : 2
Format                           : AC-3
Format/Info                      : Audio Coding 3
Mode extension                   : CM (complete main)
Muxing mode                      : Header stripping
Codec ID                         : A_AC3
Duration                         : 1h 59mn
Bit rate mode                    : Constant
Bit rate                         : 640 Kbps
Channel(s)                       : 6 channels
Channel positions                : Front: L C R, Side: L R, LFE
Sampling rate                    : 48.0 KHz
Bit depth                        : 16 bits
Compression mode                 : Lossy
Stream size                      : 549 MiB (14%)
Title                            : AC3 5.1 640 kbps
Language                         : English

Text #1
ID                               : 3
Format                           : UTF-8
Codec ID                         : S_TEXT/UTF8
Codec ID/Info                    : UTF-8 Plain Text
Title                            : English sup to srt
Language                         : English

Text #2
ID                               : 4
Format                           : UTF-8
Codec ID                         : S_TEXT/UTF8
Codec ID/Info                    : UTF-8 Plain Text
Title                            : English (HOH) sup to srt
Language                         : English

Text #3
ID                               : 5
Format                           : UTF-8
Codec ID                         : S_TEXT/UTF8
Codec ID/Info                    : UTF-8 Plain Text
Title                            : Spanish sup to srt
Language                         : Spanish

****************************************************************

Video Source: The Rum Diary 2011 1080p Blu-Ray AVC DTS-HD MA5.1-HDChina (42.2GB)

Thanks: karantina7 (chdbits.org)

****************************************************************

I provide a small sample, so please download this to check your 
compatibility first if you are unsure.

****************************************************************

I am providing tutorials here :- 
http://tutorials4all.freeforums.org/index.php?sid=fb109f91dedb2901c4d0b39625c431f7
This is for opening my mkv encodes, remuxing to Bluray for PS3 or mkv or mp4 with 
additional or selected audio or subtitles which I will now start supplying, so if your
fed up finding the right encode to match your player - DO IT YOURSELF - it's simples.

I allow transfer of my encodes to any site, just give me credit (Thanks: GREYSHADOW)

****************************************************************